# xmcd CD database file
#
# Track frame offsets:
#	150
#	14370
#	34082
#	48866
#	69532
#	86756
#	102237
#	120851
#	135913
#	145828
#	161947
#
# Disc length: 2425 seconds
#
# Revision: 0
# Processed by: cddbd v1.5.2PL0 Copyright (c) Steve Scherf et al.
# Submitted via: CDex 1.70beta2
#
DISCID=8a09770b
DTITLE=Grinderman - Grinderman
DYEAR=2007
DGENRE=Blues
TTITLE0=Get it On
TTITLE1=No Pussy BLues
TTITLE2=Electric Alice
TTITLE3=Grinderman
TTITLE4=Depth Charge Ethel
TTITLE5=Go Tell The Women
TTITLE6=(I Don't Need You To) Set Me Free
TTITLE7=Honey Bee (Let's Fly To Mars)
TTITLE8=Man In The Moon
TTITLE9=When My Love Comes Down
TTITLE10=Love Bomb
EXTD=YEAR: 2007
EXTT0=
EXTT1=
EXTT2=
EXTT3=
EXTT4=
EXTT5=
EXTT6=
EXTT7=
EXTT8=
EXTT9=
EXTT10=
PLAYORDER=
